<?xml version="1.0" standalone="no"?>
<!DOCTYPE svg PUBLIC "-//W3C//DTD SVG 20010904//EN"
 "http://www.w3.org/TR/2001/REC-SVG-20010904/DTD/svg10.dtd">
<svg version="1.0" xmlns="http://www.w3.org/2000/svg"
 width="600.000000pt" height="600.000000pt" viewBox="0 0 600.000000 600.000000"
 preserveAspectRatio="xMidYMid meet">
<metadata>
Created by potrace 1.11, written by Peter Selinger 2001-2013
</metadata>
<g transform="translate(0.000000,600.000000) scale(0.100000,-0.100000)"
fill="#000000" stroke="none">
<path d="M0 3000 l0 -3000 3000 0 3000 0 0 3000 0 3000 -3000 0 -3000 0 0
-3000z m3252 1540 c194 -41 397 -130 560 -247 107 -76 249 -217 327 -323 35
-47 64 -86 66 -88 1 -1 36 9 77 22 380 128 802 26 1080 -262 131 -135 216
-286 265 -470 23 -85 26 -116 26 -257 0 -141 -3 -172 -26 -257 -100 -375 -381
-655 -755 -755 -84 -23 -118 -26 -252 -27 -177 -1 -271 18 -417 80 l-83 36
-113 -114 c-129 -129 -232 -206 -379 -283 -124 -64 -244 -107 -381 -137 -146
-31 -418 -31 -564 0 -290 63 -536 197 -748 407 l-101 101 -55 -22 c-123 -51
-224 -68 -389 -68 -134 1 -168 4 -252 27 -374 100 -655 380 -755 755 -23 85
-26 116 -26 257 0 141 3 172 26 257 100 375 380 655 755 755 85 23 116 26 257
26 139 0 172 -3 253 -24 l92 -25 57 75 c234 313 598 526 993 581 103 14 351 4
462 -20z"/>
</g>
</svg>
